{
	"asset":{
		"generator":"Khronos glTF Blender I/O v4.5.49",
		"version":"2.0"
	},
	"extensionsUsed":[
		"KHR_materials_transmission",
		"KHR_materials_sheen"
	],
	"scene":0,
	"scenes":[
		{
			"name":"Scene",
			"nodes":[
				0,
				1,
				2,
				3,
				4,
				5
			]
		}
	],
	"nodes":[
		{
			"mesh":0,
			"name":"Ground",
			"scale":[
				0.6715328693389893,
				0.6715328693389893,
				0.6715328693389893
			],
			"translation":[
				0,
				0.3594955503940582,
				0
			]
		},
		{
			"mesh":1,
			"name":"Building bottom",
			"translation":[
				-0.11585807800292969,
				5.629587650299072,
				0
			]
		},
		{
			"mesh":2,
			"name":"Tree",
			"rotation":[
				0,
				-0.23886226117610931,
				0,
				0.9710534811019897
			],
			"translation":[
				-7.244134426116943,
				2.80271053314209,
				7.994152069091797
			]
		},
		{
			"mesh":3,
			"name":"Tree.001",
			"rotation":[
				0,
				-0.9597558379173279,
				0,
				0.2808361351490021
			],
			"scale":[
				0.6435739994049072,
				0.6435739994049072,
				0.6435739994049072
			],
			"translation":[
				-6.1426897048950195,
				2.0468075275421143,
				6.5538010597229
			]
		},
		{
			"mesh":4,
			"name":"Tree.002",
			"rotation":[
				0,
				-0.1656908243894577,
				0,
				0.9861778616905212
			],
			"scale":[
				1.5175634622573853,
				1.5175635814666748,
				1.5175634622573853
			],
			"translation":[
				7.371187686920166,
				3.9263501167297363,
				3.207103729248047
			]
		},
		{
			"mesh":5,
			"name":"Tree.003",
			"rotation":[
				0,
				-0.7921130657196045,
				0,
				0.610374391078949
			],
			"scale":[
				0.6543586254119873,
				0.6543586254119873,
				0.6543586254119873
			],
			"translation":[
				-7.117044925689697,
				2.0774521827697754,
				-5.244367599487305
			]
		}
	],
	"materials":[
		{
			"doubleSided":true,
			"extensions":{
				"KHR_materials_transmission":{
					"transmissionFactor":1
				}
			},
			"name":"Glass",
			"normalTexture":{
				"index":0
			},
			"pbrMetallicRoughness":{
				"baseColorTexture":{
					"index":1
				},
				"metallicFactor":0,
				"metallicRoughnessTexture":{
					"index":2
				}
			}
		},
		{
			"doubleSided":true,
			"name":"Facade",
			"pbrMetallicRoughness":{
				"baseColorFactor":[
					0.6568348407745361,
					0.6568348407745361,
					0.6568348407745361,
					1
				],
				"metallicFactor":0,
				"roughnessFactor":0.5
			}
		},
		{
			"doubleSided":true,
			"extensions":{
				"KHR_materials_transmission":{
					"transmissionFactor":1
				}
			},
			"name":"Glass.001",
			"normalTexture":{
				"index":3
			},
			"pbrMetallicRoughness":{
				"baseColorTexture":{
					"index":4
				},
				"metallicFactor":0,
				"metallicRoughnessTexture":{
					"index":5
				}
			}
		},
		{
			"doubleSided":true,
			"extensions":{
				"KHR_materials_sheen":{
					"sheenColorFactor":[
						1.0,
						1.0,
						1.0
					],
					"sheenRoughnessFactor":0.5
				}
			},
			"name":"Door",
			"pbrMetallicRoughness":{
				"baseColorFactor":[
					0.09880976378917694,
					0.04579564183950424,
					0.027626309543848038,
					1
				],
				"metallicFactor":0,
				"roughnessFactor":0.5
			}
		},
		{
			"doubleSided":true,
			"name":"Metal",
			"pbrMetallicRoughness":{
				"baseColorFactor":[
					0.32567259669303894,
					0.32567259669303894,
					0.32567259669303894,
					1
				],
				"roughnessFactor":0.5
			}
		},
		{
			"doubleSided":true,
			"name":"Trunk",
			"pbrMetallicRoughness":{
				"baseColorFactor":[
					0.3708510994911194,
					0.13693420588970184,
					0.05286762863397598,
					1
				],
				"metallicFactor":0,
				"roughnessFactor":0.5
			}
		},
		{
			"doubleSided":true,
			"name":"Leaves",
			"pbrMetallicRoughness":{
				"baseColorFactor":[
					0.13359341025352478,
					0.37880218029022217,
					0.1130988672375679,
					1
				],
				"metallicFactor":0,
				"roughnessFactor":0.5
			}
		}
	],
	"meshes":[
		{
			"name":"Roundcube",
			"primitives":[
				{
					"attributes":{
						"POSITION":0,
						"NORMAL":1
					},
					"indices":2
				}
			]
		},
		{
			"name":"Cube.011",
			"primitives":[
				{
					"attributes":{
						"POSITION":3,
						"NORMAL":4,
						"TEXCOORD_0":5
					},
					"indices":6,
					"material":0
				},
				{
					"attributes":{
						"POSITION":7,
						"NORMAL":8,
						"TEXCOORD_0":9
					},
					"indices":10,
					"material":1
				},
				{
					"attributes":{
						"POSITION":11,
						"NORMAL":12,
						"TEXCOORD_0":13
					},
					"indices":14,
					"material":2
				},
				{
					"attributes":{
						"POSITION":15,
						"NORMAL":16,
						"TEXCOORD_0":17
					},
					"indices":18,
					"material":3
				},
				{
					"attributes":{
						"POSITION":19,
						"NORMAL":20,
						"TEXCOORD_0":21
					},
					"indices":22,
					"material":4
				}
			]
		},
		{
			"name":"Roundcube.002",
			"primitives":[
				{
					"attributes":{
						"POSITION":23,
						"NORMAL":24
					},
					"indices":25,
					"material":5
				},
				{
					"attributes":{
						"POSITION":26,
						"NORMAL":27
					},
					"indices":28,
					"material":6
				}
			]
		},
		{
			"name":"Roundcube.003",
			"primitives":[
				{
					"attributes":{
						"POSITION":29,
						"NORMAL":30
					},
					"indices":31,
					"material":5
				},
				{
					"attributes":{
						"POSITION":32,
						"NORMAL":33
					},
					"indices":28,
					"material":6
				}
			]
		},
		{
			"name":"Roundcube.004",
			"primitives":[
				{
					"attributes":{
						"POSITION":34,
						"NORMAL":35
					},
					"indices":25,
					"material":5
				},
				{
					"attributes":{
						"POSITION":36,
						"NORMAL":37
					},
					"indices":28,
					"material":6
				}
			]
		},
		{
			"name":"Roundcube.005",
			"primitives":[
				{
					"attributes":{
						"POSITION":38,
						"NORMAL":39
					},
					"indices":40,
					"material":5
				},
				{
					"attributes":{
						"POSITION":41,
						"NORMAL":42
					},
					"indices":28,
					"material":6
				}
			]
		}
	],
	"textures":[
		{
			"sampler":0,
			"source":0
		},
		{
			"sampler":0,
			"source":1
		},
		{
			"sampler":0,
			"source":2
		},
		{
			"sampler":0,
			"source":0
		},
		{
			"sampler":0,
			"source":1
		},
		{
			"sampler":0,
			"source":2
		}
	],
	"images":[
		{
			"mimeType":"image/jpeg",
			"name":"Facade001_2K-JPG_NormalGL",
			"uri":"Facade001_2K-JPG_NormalGL.jpg"
		},
		{
			"mimeType":"image/jpeg",
			"name":"Facade001_2K-JPG_Color",
			"uri":"Facade001_2K-JPG_Color.jpg"
		},
		{
			"mimeType":"image/png",
			"name":"Facade001_2K-JPG_Roughness",
			"uri":"Facade001_2K-JPG_Roughness.png"
		}
	],
	"accessors":[
		{
			"bufferView":0,
			"componentType":5126,
			"count":1944,
			"max":[
				15,
				0.5,
				15
			],
			"min":[
				-15,
				-0.5,
				-15
			],
			"type":"VEC3"
		},
		{
			"bufferView":1,
			"componentType":5126,
			"count":1944,
			"type":"VEC3"
		},
		{
			"bufferView":2,
			"componentType":5123,
			"count":2916,
			"type":"SCALAR"
		},
		{
			"bufferView":3,
			"componentType":5126,
			"count":890,
			"max":[
				5,
				14.053157806396484,
				5
			],
			"min":[
				-5,
				-4.94020938873291,
				-5
			],
			"type":"VEC3"
		},
		{
			"bufferView":4,
			"componentType":5126,
			"count":890,
			"type":"VEC3"
		},
		{
			"bufferView":5,
			"componentType":5126,
			"count":890,
			"type":"VEC2"
		},
		{
			"bufferView":6,
			"componentType":5123,
			"count":1416,
			"type":"SCALAR"
		},
		{
			"bufferView":7,
			"componentType":5126,
			"count":4827,
			"max":[
				5,
				15.908220291137695,
				5
			],
			"min":[
				-5,
				-4.94020938873291,
				-5
			],
			"type":"VEC3"
		},
		{
			"bufferView":8,
			"componentType":5126,
			"count":4827,
			"type":"VEC3"
		},
		{
			"bufferView":9,
			"componentType":5126,
			"count":4827,
			"type":"VEC2"
		},
		{
			"bufferView":10,
			"componentType":5123,
			"count":19224,
			"type":"SCALAR"
		},
		{
			"bufferView":11,
			"componentType":5126,
			"count":20,
			"max":[
				4.552840709686279,
				-2.4693808555603027,
				4.611840724945068
			],
			"min":[
				-4.454649925231934,
				-4.7602152824401855,
				-4.497959136962891
			],
			"type":"VEC3"
		},
		{
			"bufferView":12,
			"componentType":5126,
			"count":20,
			"type":"VEC3"
		},
		{
			"bufferView":13,
			"componentType":5126,
			"count":20,
			"type":"VEC2"
		},
		{
			"bufferView":14,
			"componentType":5123,
			"count":30,
			"type":"SCALAR"
		},
		{
			"bufferView":15,
			"componentType":5126,
			"count":12,
			"max":[
				0.867843508720398,
				-2.459441661834717,
				4.616896152496338
			],
			"min":[
				-0.8870849609375,
				-4.94020938873291,
				4.608906269073486
			],
			"type":"VEC3"
		},
		{
			"bufferView":16,
			"componentType":5126,
			"count":12,
			"type":"VEC3"
		},
		{
			"bufferView":17,
			"componentType":5126,
			"count":12,
			"type":"VEC2"
		},
		{
			"bufferView":18,
			"componentType":5123,
			"count":18,
			"type":"SCALAR"
		},
		{
			"bufferView":19,
			"componentType":5126,
			"count":288,
			"max":[
				0.2982032895088196,
				-3.849522590637207,
				4.690946102142334
			],
			"min":[
				-0.2982363700866699,
				-3.8968446254730225,
				4.601400852203369
			],
			"type":"VEC3"
		},
		{
			"bufferView":20,
			"componentType":5126,
			"count":288,
			"type":"VEC3"
		},
		{
			"bufferView":21,
			"componentType":5126,
			"count":288,
			"type":"VEC2"
		},
		{
			"bufferView":22,
			"componentType":5123,
			"count":408,
			"type":"SCALAR"
		},
		{
			"bufferView":23,
			"componentType":5126,
			"count":1176,
			"max":[
				0.26086869835853577,
				-0.8069114685058594,
				0.25875842571258545
			],
			"min":[
				-0.26086869835853577,
				-2.1585168838500977,
				-0.263074666261673
			],
			"type":"VEC3"
		},
		{
			"bufferView":24,
			"componentType":5126,
			"count":1176,
			"type":"VEC3"
		},
		{
			"bufferView":25,
			"componentType":5123,
			"count":1764,
			"type":"SCALAR"
		},
		{
			"bufferView":26,
			"componentType":5126,
			"count":218,
			"max":[
				1,
				2.5176146030426025,
				1
			],
			"min":[
				-1,
				-1,
				-1
			],
			"type":"VEC3"
		},
		{
			"bufferView":27,
			"componentType":5126,
			"count":218,
			"type":"VEC3"
		},
		{
			"bufferView":28,
			"componentType":5123,
			"count":1296,
			"type":"SCALAR"
		},
		{
			"bufferView":29,
			"componentType":5126,
			"count":1176,
			"max":[
				0.26086869835853577,
				-0.8713810443878174,
				0.25875842571258545
			],
			"min":[
				-0.26086869835853577,
				-2.1585168838500977,
				-0.263074666261673
			],
			"type":"VEC3"
		},
		{
			"bufferView":30,
			"componentType":5126,
			"count":1176,
			"type":"VEC3"
		},
		{
			"bufferView":31,
			"componentType":5123,
			"count":1764,
			"type":"SCALAR"
		},
		{
			"bufferView":32,
			"componentType":5126,
			"count":218,
			"max":[
				1.2886841297149658,
				2.6409168243408203,
				1.288684606552124
			],
			"min":[
				-1.2770785093307495,
				-1.0168052911758423,
				-1.277078628540039
			],
			"type":"VEC3"
		},
		{
			"bufferView":33,
			"componentType":5126,
			"count":218,
			"type":"VEC3"
		},
		{
			"bufferView":34,
			"componentType":5126,
			"count":1176,
			"max":[
				0.26086869835853577,
				-0.8069114685058594,
				0.25875842571258545
			],
			"min":[
				-0.26086869835853577,
				-2.1585168838500977,
				-0.263074666261673
			],
			"type":"VEC3"
		},
		{
			"bufferView":35,
			"componentType":5126,
			"count":1176,
			"type":"VEC3"
		},
		{
			"bufferView":36,
			"componentType":5126,
			"count":218,
			"max":[
				0.9712106585502625,
				2.5176146030426025,
				0.9712106585502625
			],
			"min":[
				-0.9712106585502625,
				-1,
				-0.9712106585502625
			],
			"type":"VEC3"
		},
		{
			"bufferView":37,
			"componentType":5126,
			"count":218,
			"type":"VEC3"
		},
		{
			"bufferView":38,
			"componentType":5126,
			"count":1176,
			"max":[
				0.26086869835853577,
				-0.9312217235565186,
				0.25875842571258545
			],
			"min":[
				-0.26086869835853577,
				-2.1585168838500977,
				-0.263074666261673
			],
			"type":"VEC3"
		},
		{
			"bufferView":39,
			"componentType":5126,
			"count":1176,
			"type":"VEC3"
		},
		{
			"bufferView":40,
			"componentType":5123,
			"count":1764,
			"type":"SCALAR"
		},
		{
			"bufferView":41,
			"componentType":5126,
			"count":218,
			"max":[
				1.3104972839355469,
				3.0071797370910645,
				1.2950929403305054
			],
			"min":[
				-1.298384666442871,
				-1.0904914140701294,
				-1.2853144407272339
			],
			"type":"VEC3"
		},
		{
			"bufferView":42,
			"componentType":5126,
			"count":218,
			"type":"VEC3"
		}
	],
	"bufferViews":[
		{
			"buffer":0,
			"byteLength":23328,
			"byteOffset":0,
			"target":34962
		},
		{
			"buffer":0,
			"byteLength":23328,
			"byteOffset":23328,
			"target":34962
		},
		{
			"buffer":0,
			"byteLength":5832,
			"byteOffset":46656,
			"target":34963
		},
		{
			"buffer":0,
			"byteLength":10680,
			"byteOffset":52488,
			"target":34962
		},
		{
			"buffer":0,
			"byteLength":10680,
			"byteOffset":63168,
			"target":34962
		},
		{
			"buffer":0,
			"byteLength":7120,
			"byteOffset":73848,
			"target":34962
		},
		{
			"buffer":0,
			"byteLength":2832,
			"byteOffset":80968,
			"target":34963
		},
		{
			"buffer":0,
			"byteLength":57924,
			"byteOffset":83800,
			"target":34962
		},
		{
			"buffer":0,
			"byteLength":57924,
			"byteOffset":141724,
			"target":34962
		},
		{
			"buffer":0,
			"byteLength":38616,
			"byteOffset":199648,
			"target":34962
		},
		{
			"buffer":0,
			"byteLength":38448,
			"byteOffset":238264,
			"target":34963
		},
		{
			"buffer":0,
			"byteLength":240,
			"byteOffset":276712,
			"target":34962
		},
		{
			"buffer":0,
			"byteLength":240,
			"byteOffset":276952,
			"target":34962
		},
		{
			"buffer":0,
			"byteLength":160,
			"byteOffset":277192,
			"target":34962
		},
		{
			"buffer":0,
			"byteLength":60,
			"byteOffset":277352,
			"target":34963
		},
		{
			"buffer":0,
			"byteLength":144,
			"byteOffset":277412,
			"target":34962
		},
		{
			"buffer":0,
			"byteLength":144,
			"byteOffset":277556,
			"target":34962
		},
		{
			"buffer":0,
			"byteLength":96,
			"byteOffset":277700,
			"target":34962
		},
		{
			"buffer":0,
			"byteLength":36,
			"byteOffset":277796,
			"target":34963
		},
		{
			"buffer":0,
			"byteLength":3456,
			"byteOffset":277832,
			"target":34962
		},
		{
			"buffer":0,
			"byteLength":3456,
			"byteOffset":281288,
			"target":34962
		},
		{
			"buffer":0,
			"byteLength":2304,
			"byteOffset":284744,
			"target":34962
		},
		{
			"buffer":0,
			"byteLength":816,
			"byteOffset":287048,
			"target":34963
		},
		{
			"buffer":0,
			"byteLength":14112,
			"byteOffset":287864,
			"target":34962
		},
		{
			"buffer":0,
			"byteLength":14112,
			"byteOffset":301976,
			"target":34962
		},
		{
			"buffer":0,
			"byteLength":3528,
			"byteOffset":316088,
			"target":34963
		},
		{
			"buffer":0,
			"byteLength":2616,
			"byteOffset":319616,
			"target":34962
		},
		{
			"buffer":0,
			"byteLength":2616,
			"byteOffset":322232,
			"target":34962
		},
		{
			"buffer":0,
			"byteLength":2592,
			"byteOffset":324848,
			"target":34963
		},
		{
			"buffer":0,
			"byteLength":14112,
			"byteOffset":327440,
			"target":34962
		},
		{
			"buffer":0,
			"byteLength":14112,
			"byteOffset":341552,
			"target":34962
		},
		{
			"buffer":0,
			"byteLength":3528,
			"byteOffset":355664,
			"target":34963
		},
		{
			"buffer":0,
			"byteLength":2616,
			"byteOffset":359192,
			"target":34962
		},
		{
			"buffer":0,
			"byteLength":2616,
			"byteOffset":361808,
			"target":34962
		},
		{
			"buffer":0,
			"byteLength":14112,
			"byteOffset":364424,
			"target":34962
		},
		{
			"buffer":0,
			"byteLength":14112,
			"byteOffset":378536,
			"target":34962
		},
		{
			"buffer":0,
			"byteLength":2616,
			"byteOffset":392648,
			"target":34962
		},
		{
			"buffer":0,
			"byteLength":2616,
			"byteOffset":395264,
			"target":34962
		},
		{
			"buffer":0,
			"byteLength":14112,
			"byteOffset":397880,
			"target":34962
		},
		{
			"buffer":0,
			"byteLength":14112,
			"byteOffset":411992,
			"target":34962
		},
		{
			"buffer":0,
			"byteLength":3528,
			"byteOffset":426104,
			"target":34963
		},
		{
			"buffer":0,
			"byteLength":2616,
			"byteOffset":429632,
			"target":34962
		},
		{
			"buffer":0,
			"byteLength":2616,
			"byteOffset":432248,
			"target":34962
		}
	],
	"samplers":[
		{
			"magFilter":9729,
			"minFilter":9987
		}
	],
	"buffers":[
		{
			"byteLength":434864,
			"uri":"building.bin"
		}
	]
}
